<svg width="169" height="28" viewBox="0 0 169 28" fill="none" xmlns="http://www.w3.org/2000/svg">
<g id="Domain=.com, Colour=White, Size=Optimized">
<g id="logo">
<path d="M14.8772 11.5798L13.9188 14.1845L14.1979 17.0942L11.9544 17.1049H9.73206L10.0323 14.1845L9.05269 11.5798H14.8772Z" fill="white"/>
<path d="M17.5472 12.4516L14.9089 14.1952V17.2921L12.8971 19.255V20.1803L14.8404 21.9935H16.4624L20.5543 14.7515L17.5472 12.4516Z" fill="white"/>
<path d="M7.44125 6.21509H16.4413L17.5262 10.8791H6.39326L7.44125 6.21509Z" fill="white"/>
<path d="M9.04222 14.1952L6.37218 12.473L3.35461 14.7515L7.4676 22.0149H9.11068L11.0539 20.1803V19.255L9.04222 17.2921V14.1952Z" fill="white"/>
<path fill-rule="evenodd" clip-rule="evenodd" d="M0.0316285 6.98529L11.9702 0L23.8615 7.00668V20.9933L11.9176 28L0 20.988V6.98529H0.0316285ZM11.9702 1.42808L1.22175 7.71805V20.298L11.9702 26.588L22.6713 20.298V7.71805L11.9702 1.42808Z" fill="white"/>
<path d="M92.8602 16.5058V10.0875H95.6039V7.5148H92.8602V3.92054H89.9111V7.5148H88.2733V10.0875H89.9111V16.9444C89.9111 19.8059 91.4489 20.7847 93.5975 20.7847H95.5987V18.1104H94.4401C93.4448 18.1104 92.8602 17.6665 92.8602 16.5058Z" fill="white"/>
<path d="M40.1343 20.8863C39.2551 20.8964 38.3829 20.7276 37.5691 20.3897C36.7552 20.0519 36.0163 19.5519 35.3958 18.9192C34.7754 18.2866 34.286 17.5341 33.9565 16.7062C33.6271 15.8783 33.4643 14.9918 33.4777 14.0989C33.463 13.2 33.6252 12.307 33.9549 11.4726C34.2846 10.6382 34.7751 9.87908 35.3977 9.23984C36.0202 8.60059 36.7622 8.09411 37.5801 7.75012C38.398 7.40613 39.2754 7.23156 40.1606 7.23667C41.1303 7.19449 42.0968 7.37561 42.9878 7.76649C43.8788 8.15736 44.6712 8.74786 45.3058 9.49379L43.4784 11.4995C42.5726 10.5314 41.6246 9.86285 40.1343 9.86285C37.9909 9.86285 36.4479 11.7456 36.4479 14.0508C36.4479 16.3561 38.0278 18.2816 40.3028 18.2816C40.939 18.2671 41.5651 18.1167 42.1404 17.8402C42.7156 17.5638 43.2271 17.1674 43.6416 16.677L45.4216 18.4581C44.7855 19.2509 43.9769 19.8829 43.0594 20.3043C42.1419 20.7257 41.1405 20.9249 40.1343 20.8863Z" fill="white"/>
<path d="M51.0038 20.8863H48.0495V7.26342H51.0038V10.4726C51.8043 8.51499 53.2947 7.17784 55.5645 7.26342V10.4351H55.3907C52.8049 10.4351 51.0038 12.1414 51.0038 15.6073V20.8863Z" fill="white"/>
<path d="M64.4855 24.5555L71.0104 7.23668H67.9507L64.2907 17.3242L60.4779 7.23668H57.3339L62.9214 20.8917L61.4943 24.5555H64.4855Z" fill="white"/>
<path fill-rule="evenodd" clip-rule="evenodd" d="M80.3949 20.8596C79.5374 20.8654 78.6915 20.6584 77.9307 20.2567C77.1698 19.8549 76.5171 19.2706 76.0292 18.5543V24.5501H73.059V7.23668H76.0081V9.69169C76.471 8.93992 77.1146 8.32012 77.8783 7.89064C78.6421 7.46116 79.5009 7.23611 80.3739 7.23668C83.423 7.23668 86.3722 9.69169 86.3722 14.0508C86.3722 18.4099 83.4704 20.8596 80.3949 20.8596ZM79.7103 9.8361C77.7144 9.8361 75.9555 11.4995 75.9555 14.0508C75.9555 16.6021 77.7144 18.2602 79.7103 18.2602C81.7062 18.2602 83.3967 16.6556 83.3967 14.0508C83.3967 11.446 81.7115 9.8361 79.7103 9.8361Z" fill="white"/>
<path fill-rule="evenodd" clip-rule="evenodd" d="M104.936 20.8863C104.044 20.9107 103.156 20.753 102.326 20.4226C101.495 20.0922 100.738 19.5959 100.1 18.9629C99.4612 18.33 98.9543 17.5734 98.6091 16.7379C98.2638 15.9024 98.0872 15.005 98.0896 14.0989C98.0572 12.7171 98.4309 11.3569 99.1632 10.1918C99.8955 9.02679 100.953 8.10983 102.201 7.55804C103.449 7.00625 104.83 6.84468 106.168 7.09395C107.507 7.34322 108.742 7.99203 109.716 8.95752C110.69 9.92301 111.358 11.1614 111.636 12.5145C111.914 13.8676 111.788 15.2741 111.275 16.5543C110.762 17.8345 109.885 18.9304 108.756 19.702C107.627 20.4736 106.297 20.8859 104.936 20.8863ZM104.936 9.86285C102.571 9.86285 101.06 11.7456 101.06 14.0508C101.06 16.3561 102.692 18.2816 104.988 18.2816C107.374 18.2816 108.885 16.4042 108.885 14.0989C108.885 11.7937 107.253 9.86285 104.936 9.86285Z" fill="white"/>
<path fill-rule="evenodd" clip-rule="evenodd" d="M137.441 20.4226C138.272 20.753 139.159 20.9107 140.051 20.8863C141.412 20.8859 142.742 20.4736 143.871 19.702C145 18.9304 145.877 17.8345 146.39 16.5543C146.903 15.2741 147.029 13.8676 146.751 12.5145C146.474 11.1614 145.805 9.92301 144.832 8.95752C143.858 7.99203 142.623 7.34322 141.284 7.09395C139.945 6.84468 138.564 7.00625 137.316 7.55804C136.068 8.10983 135.011 9.02679 134.279 10.1918C133.546 11.3569 133.173 12.7171 133.205 14.0989C133.203 15.005 133.379 15.9024 133.725 16.7379C134.07 17.5734 134.577 18.33 135.215 18.9629C135.853 19.5959 136.61 20.0922 137.441 20.4226ZM136.17 14.0508C136.17 11.7456 137.681 9.86285 140.051 9.86285C142.363 9.86285 144.001 11.7937 144.001 14.0989C144.001 16.4042 142.49 18.2816 140.099 18.2816C137.803 18.2816 136.17 16.3561 136.17 14.0508Z" fill="white"/>
<path d="M164.492 7.23668C167.294 7.23668 169 9.04451 169 12.243V20.8863H166.051V13.1576C166.051 11.077 165.098 9.94842 163.418 9.94842C161.738 9.94842 160.663 11.0877 160.663 13.1897V20.8703H157.714V13.1148C157.714 11.0877 156.74 9.94842 155.081 9.94842C153.422 9.94842 152.327 11.184 152.327 13.2164V20.8703H149.42V7.23668H152.369V9.49379C153.201 8.32779 154.323 7.23668 156.298 7.23668C157.088 7.19991 157.871 7.39855 158.551 7.80814C159.232 8.21772 159.779 8.82038 160.126 9.54193C160.614 8.82572 161.267 8.24135 162.028 7.8396C162.789 7.43786 163.635 7.23089 164.492 7.23668Z" fill="white"/>
<path d="M117.238 19.6455V18.1372C117.239 18.1227 117.239 18.1082 117.236 18.094C117.234 18.0804 117.23 18.067 117.225 18.0541C117.219 18.0412 117.212 18.029 117.204 18.0179C117.202 18.0157 117.201 18.0136 117.199 18.0115L117.195 18.0072C117.193 18.005 117.191 18.0029 117.189 18.0008C117.185 17.996 117.18 17.9916 117.175 17.9874L115.89 17.2279C115.863 17.2119 115.833 17.2034 115.803 17.2034C115.772 17.2034 115.742 17.2119 115.716 17.2279L114.405 17.9874C114.379 18.0025 114.357 18.0244 114.342 18.0507C114.328 18.077 114.32 18.1068 114.32 18.1372V19.6455C114.319 19.6759 114.327 19.7059 114.342 19.7323C114.357 19.7588 114.378 19.7805 114.405 19.7952L115.695 20.5547C115.721 20.5708 115.751 20.5792 115.782 20.5792C115.812 20.5792 115.842 20.5708 115.869 20.5547L117.154 19.7952C117.173 19.7845 117.189 19.77 117.203 19.7526C117.205 19.7493 117.208 19.746 117.21 19.7425L117.213 19.738L117.216 19.7323C117.231 19.7059 117.239 19.6759 117.238 19.6455Z" fill="white"/>
<path d="M126.248 20.8703C125.369 20.8637 124.5 20.6782 123.693 20.3246C122.885 19.9711 122.156 19.4568 121.548 18.812C120.94 18.1673 120.465 17.4052 120.151 16.5709C119.838 15.7366 119.692 14.8469 119.723 13.9545C119.725 13.0579 119.903 12.1706 120.247 11.3446C120.59 10.5187 121.093 9.77053 121.724 9.14402C122.356 8.51751 123.104 8.02519 123.925 7.69585C124.746 7.36652 125.624 7.20678 126.506 7.22598C127.477 7.20243 128.44 7.40187 129.323 7.80939C130.207 8.2169 130.988 8.82196 131.609 9.57937L129.74 11.5477C129.347 11.0337 128.846 10.6146 128.274 10.3205C127.702 10.0264 127.073 9.86463 126.433 9.8468C124.284 9.80936 122.688 11.66 122.646 13.9599C122.604 16.2598 124.152 18.2388 126.417 18.2709C127.056 18.2659 127.686 18.1236 128.267 17.8535C128.848 17.5835 129.366 17.1916 129.787 16.7037L131.536 18.5223C130.89 19.2989 130.078 19.9145 129.161 20.3216C128.245 20.7288 127.248 20.9165 126.248 20.8703Z" fill="white"/>
</g>
</g>
</svg>
