<svg width="135" height="40" viewBox="0 0 135 40" fill="none" xmlns="http://www.w3.org/2000/svg"><path d="M58.9855 4.5379C56.8379 4.08584 55.452 2.68766 54.6229 0.140806L54.5775 0L54.5321 0.140806C53.7043 2.68766 52.3171 4.0846 50.1695 4.5379L49.9438 4.58483L50.1695 4.63177C52.3171 5.08506 53.703 6.48201 54.5321 9.02886L54.5775 9.16967L54.6229 9.02886C55.4508 6.48201 56.8367 5.08506 58.9855 4.63177L59.2112 4.58483L58.9855 4.5379V4.5379Z" fill="#FFCC31"></path><path d="M105.123 4.5379C102.976 4.08584 101.59 2.68766 100.761 0.140806L100.715 0L100.67 0.140806C99.8422 2.68766 98.455 4.0846 96.3075 4.5379L96.0818 4.58483L96.3075 4.63177C98.455 5.08506 99.841 6.48201 100.67 9.02886L100.715 9.16967L100.761 9.02886C101.589 6.48201 102.975 5.08506 105.123 4.63177L105.349 4.58483L105.123 4.5379V4.5379Z" fill="#009B3D"></path><path d="M111.269 1.04395C107.382 1.04395 104.229 4.21825 104.229 8.13364V15.211C104.229 17.1625 102.652 18.7509 100.714 18.7509C98.7765 18.7509 97.1992 17.1625 97.1992 15.211V8.13364C97.1992 4.21825 94.0471 1.04395 90.1592 1.04395V15.2196C90.1641 21.0853 94.8873 25.8468 100.714 25.8468C102.652 25.8468 104.225 27.429 104.225 29.3817C104.225 31.3345 102.653 32.9167 100.714 32.9167C98.7753 32.9167 97.2139 31.3419 97.2054 29.3978H90.1714C90.18 35.2548 94.8971 40.0002 100.714 40.0002C106.532 40.0002 111.258 35.2462 111.258 29.3817C111.258 26.6619 110.242 24.183 108.572 22.3044C110.247 20.4245 111.267 17.9419 111.268 15.2196V1.04395H111.269Z" fill="#010101"></path><path d="M65.1327 1.04395C61.2447 1.04395 58.0926 4.21825 58.0926 8.13364V15.211C58.0926 17.1625 56.5153 18.7509 54.5775 18.7509C52.6396 18.7509 51.0624 17.1625 51.0624 15.211V8.13364C51.0624 4.21825 47.9103 1.04395 44.0223 1.04395V15.2172C44.026 21.0841 48.7505 25.8468 54.5775 25.8468C56.5166 25.8468 58.0877 27.429 58.0877 29.3817C58.0877 31.3345 56.5166 32.9167 54.5775 32.9167C52.6384 32.9167 51.0771 31.3419 51.0685 29.3978H44.0346C44.0432 35.2548 48.7603 40.0002 54.5775 40.0002C60.3947 40.0002 65.1216 35.2462 65.1216 29.3817C65.1216 26.6619 64.1049 24.183 62.4356 22.3044C64.1098 20.4245 65.1302 17.9406 65.1314 15.2172L65.1327 1.04395Z" fill="#010101"></path><path d="M66.9049 7.06628C66.8142 10.5617 69.6007 13.4235 73.0509 13.4235C69.9 13.4235 67.3035 15.8123 66.9466 18.889C66.9233 19.0866 66.9184 19.2855 66.9172 19.4844C66.9135 20.2613 66.9025 25.833 66.9025 25.833H73.9413V20.8615C73.9401 19.4461 75.0795 18.2986 76.485 18.2986L84.4952 18.3036V11.6598H75.7687C74.8243 11.6598 73.9952 10.9421 73.9388 9.99232C73.8775 8.96098 74.6894 8.10503 75.7001 8.10503H87.9821V1.04004H73.187C69.8325 1.04004 66.992 3.68941 66.9037 7.06628H66.9049Z" fill="#010101"></path><path d="M134.53 11.6735C134.53 5.80293 129.804 1.04395 123.975 1.04395C118.145 1.04395 113.419 5.80293 113.419 11.6735V25.8406H120.459V14.875C118.103 13.7498 116.5 11.923 116.5 11.923C116.5 11.923 119.847 8.1077 123.976 8.1077C128.104 8.1077 131.451 11.923 131.451 11.923C131.451 11.923 129.847 13.751 127.49 14.8763L127.492 25.8406H134.532L134.53 11.6735V11.6735Z" fill="#010101"></path><path d="M42.1201 18.5923C41.6356 15.6601 39.1066 13.4245 36.0575 13.4245C39.4537 13.4245 42.2059 10.6529 42.2059 7.23276C42.2059 3.81267 39.4537 1.04102 36.0575 1.04102L10.5588 1.04349C4.73547 1.04349 0.0147182 5.79753 0.0147182 11.662C0.0147182 11.6669 0.0110389 15.1302 0.0110389 15.1302C0.0110389 19.2964 2.39165 22.945 5.85771 24.7124C5.91658 24.7433 5.94847 24.7643 6.00979 24.7902C7.15043 25.3905 7.92557 25.3189 8.89572 25.1991C9.67944 24.6112 10.2645 23.7169 10.6778 22.4904C11.0629 23.7231 11.6259 24.6297 12.3937 25.2349C13.3601 25.372 14.399 25.1509 15.5494 24.5753C14.9595 25.7277 14.7264 26.7739 14.8503 27.7509C15.4378 28.5377 16.3295 29.1231 17.5498 29.5332C16.3184 29.9309 15.417 30.5077 14.8197 31.2933C14.6725 32.2715 14.8871 33.3263 15.4587 34.4947C14.3143 33.8945 13.2743 33.6548 12.3017 33.7784C11.513 34.365 10.9243 35.2605 10.5073 36.4882C10.1222 35.2506 9.55925 34.3403 8.78656 33.7326C7.81764 33.5844 6.77267 33.7981 5.61486 34.3687C6.21339 33.2201 6.45378 32.1751 6.33481 31.1957C5.75468 30.4052 4.87038 29.8136 3.65616 29.3924H0C0.00858542 35.2494 4.73302 39.9948 10.5613 39.9948C16.3896 39.9948 21.1238 35.2408 21.1238 29.3763C21.1238 26.6355 20.0911 24.1381 18.3949 22.2545C20.0874 20.3697 21.1189 17.8698 21.1189 15.129V11.6595H14.0789V15.129C14.0789 17.0805 12.5016 18.6689 10.5637 18.6689C8.62589 18.6689 7.04863 17.0805 7.04863 15.129V11.6607C7.0474 9.71045 8.61608 8.12824 10.5527 8.12577L33.4059 8.10477C34.4189 8.10477 35.2333 8.96443 35.1671 9.99947C35.107 10.9444 34.2853 11.6583 33.3458 11.6583H24.6107V18.3021L32.6209 18.2971C34.0265 18.2971 35.1659 19.4446 35.1659 20.86V25.829H42.2035L42.1887 19.5718C42.1887 19.2432 42.1716 18.9135 42.1188 18.5886L42.1201 18.5923Z" fill="#010101"></path><path d="M12.5066 31.2959C13.5652 30.2299 13.5652 28.5016 12.5066 27.4356C11.4481 26.3696 9.73188 26.3696 8.67335 27.4356C7.61482 28.5016 7.61482 30.2299 8.67335 31.2959C9.73189 32.3619 11.4481 32.3619 12.5066 31.2959Z" fill="#FE6B32"></path><path d="M123.976 14.3939C125.473 14.3939 126.686 13.1718 126.686 11.6642C126.686 10.1567 125.473 8.93457 123.976 8.93457C122.479 8.93457 121.265 10.1567 121.265 11.6642C121.265 13.1718 122.479 14.3939 123.976 14.3939Z" fill="#1996CE"></path></svg>